<!-- <svg width="143" height="24" viewBox="0 0 143 24" fill="none" xmlns="http://www.w3.org/2000/svg">
<path d="M4.38658 2.84547L0.686569 9.4185C0.238522 10.2144 0.0021352 11.1119 1.43973e-05 12.0252C-0.0021064 12.9385 0.23011 13.8371 0.674456 14.635L4.36216 21.2583C4.82487 22.0894 5.50125 22.7818 6.3213 23.2638C7.14136 23.7458 8.07531 24 9.02654 24H12.9501L7.61632 14.7249C7.15069 13.9151 6.90565 12.9974 6.90565 12.0633C6.90565 11.1292 7.15069 10.2115 7.61632 9.4017L12.9501 0.126419H9.03885C8.09193 0.126345 7.16203 0.378119 6.3445 0.855929C5.52697 1.33374 4.85124 2.02039 4.38658 2.84547Z" fill="#4B5563"/>
<path d="M13.4335 2.71903L9.73345 9.29201C9.2854 10.0879 9.04901 10.9854 9.04689 11.8987C9.04477 12.812 9.27698 13.7106 9.72133 14.5085L13.4089 21.1317C13.8716 21.9628 14.548 22.6552 15.3681 23.1372C16.1882 23.6193 17.1222 23.8734 18.0735 23.8734H21.997L16.6633 14.5982C16.1975 13.7885 15.9524 12.8707 15.9524 11.9366C15.9524 11.0025 16.1975 10.0847 16.6633 9.27502L21.997 1.01138e-07H18.0862C17.1392 -0.000184207 16.2092 0.25154 15.3916 0.729354C14.5739 1.20717 13.8982 1.89387 13.4335 2.71903Z" fill="#C2C8CE"/>
<path d="M19.9727 7.3131L21.5532 10.4287H26.8674C27.6699 10.4287 28.1765 9.56656 27.7869 8.86574L23.4777 1.11696L19.9727 7.3131Z" fill="#4B5563"/>
<path d="M21.6066 13.6956L19.9727 16.4176L23.4777 23.0759L27.7955 15.2565C28.1825 14.5551 27.6753 13.6956 26.8743 13.6956H21.6066Z" fill="#4B5563"/>
<path d="M45.6837 12.5C45.6837 11.0497 46.0028 9.79282 46.6409 8.72928C47.2983 7.64641 48.1492 6.81492 49.1934 6.23481C50.2569 5.63536 51.4075 5.33564 52.645 5.33564C53.6119 5.33564 54.482 5.46133 55.2555 5.71271C56.029 5.96409 56.7251 6.31215 57.3439 6.75691C57.982 7.18232 58.5331 7.66575 58.9972 8.20718V4.14641C58.1464 3.45028 57.2279 2.91851 56.2417 2.55111C55.2555 2.1837 54.018 2 52.529 2C51.0401 2 49.6478 2.25138 48.3522 2.75414C47.076 3.25691 45.9641 3.98204 45.0166 4.92956C44.0691 5.87707 43.3246 6.99862 42.7831 8.2942C42.261 9.57044 42 10.9724 42 12.5C42 14.0276 42.261 15.4392 42.7831 16.7348C43.3246 18.0111 44.0691 19.1229 45.0166 20.0704C45.9641 21.018 47.076 21.7431 48.3522 22.2459C49.6478 22.7486 51.0401 23 52.529 23C54.018 23 55.2555 22.8163 56.2417 22.4489C57.2279 22.0815 58.1464 21.5497 58.9972 20.8536V16.7928C58.5331 17.3343 57.982 17.8273 57.3439 18.2721C56.7251 18.6975 56.029 19.0359 55.2555 19.2873C54.482 19.5387 53.6119 19.6644 52.645 19.6644C51.4075 19.6644 50.2569 19.3743 49.1934 18.7942C48.1492 18.1948 47.2983 17.3536 46.6409 16.2707C46.0028 15.1878 45.6837 13.9309 45.6837 12.5Z" fill="#4B5563"/>
<path d="M67.3916 12.9641L73.8598 22.6519H77.9786L71.1043 12.9641H67.3916ZM63.2148 2.34807V22.6519H66.6375V2.34807H63.2148ZM65.2452 5.30663H69.335C70.1085 5.30663 70.7853 5.44199 71.3654 5.71271C71.9648 5.98342 72.4289 6.37016 72.7576 6.87293C73.0864 7.37569 73.2507 7.99448 73.2507 8.72928C73.2507 9.44475 73.0864 10.0635 72.7576 10.5856C72.4289 11.0884 71.9648 11.4751 71.3654 11.7459C70.7853 12.0166 70.1085 12.1519 69.335 12.1519H65.2452V14.9655H69.48C70.9496 14.9655 72.2259 14.7044 73.3087 14.1823C74.411 13.6602 75.2618 12.9254 75.8612 11.9779C76.4607 11.0304 76.7604 9.91851 76.7604 8.64227C76.7604 7.36602 76.4607 6.26381 75.8612 5.33564C75.2618 4.38812 74.411 3.65331 73.3087 3.13122C72.2259 2.60912 70.9496 2.34807 69.48 2.34807H65.2452V5.30663Z" fill="#4B5563"/>
<path d="M80.4652 2.34807V22.6519H83.9168V2.34807H80.4652Z" fill="#4B5563"/>
<path d="M88.453 2.34807V22.6519H91.8757V2.34807H88.453ZM90.4834 5.36464H94.5732C95.7528 5.36464 96.7003 5.64503 97.4157 6.2058C98.1312 6.74724 98.4889 7.55939 98.4889 8.64227C98.4889 9.72514 98.1312 10.547 97.4157 11.1077C96.7003 11.6685 95.7528 11.9489 94.5732 11.9489H90.4834V14.9655H94.5732C96.0428 14.9655 97.3191 14.7141 98.4019 14.2113C99.5041 13.6892 100.355 12.9544 100.954 12.0069C101.554 11.0594 101.854 9.93785 101.854 8.64227C101.854 7.34669 101.554 6.23481 100.954 5.30663C100.355 4.35912 99.5041 3.63398 98.4019 3.13122C97.3191 2.60912 96.0428 2.34807 94.5732 2.34807H90.4834V5.36464Z" fill="#4B5563"/>
<path d="M102.313 5.50967H107.65V22.6519H111.102V5.50967H116.468V2.34807H102.313V5.50967Z" fill="#4B5563"/>
<path d="M118.96 2.34807V22.6519H122.411V2.34807H118.96Z" fill="#4B5563"/>
<path d="M129.471 12.5C129.471 11.0497 129.79 9.79282 130.428 8.72928C131.086 7.64641 131.937 6.81492 132.981 6.23481C134.044 5.63536 135.195 5.33564 136.432 5.33564C137.399 5.33564 138.269 5.46133 139.043 5.71271C139.816 5.96409 140.513 6.31215 141.131 6.75691C141.769 7.18232 142.321 7.66575 142.785 8.20718V4.14641C141.934 3.45028 141.015 2.91851 140.029 2.55111C139.043 2.1837 137.805 2 136.316 2C134.827 2 133.435 2.25138 132.14 2.75414C130.863 3.25691 129.752 3.98204 128.804 4.92956C127.856 5.87707 127.112 6.99862 126.571 8.2942C126.048 9.57044 125.787 10.9724 125.787 12.5C125.787 14.0276 126.048 15.4392 126.571 16.7348C127.112 18.0111 127.856 19.1229 128.804 20.0704C129.752 21.018 130.863 21.7431 132.14 22.2459C133.435 22.7486 134.827 23 136.316 23C137.805 23 139.043 22.8163 140.029 22.4489C141.015 22.0815 141.934 21.5497 142.785 20.8536V16.7928C142.321 17.3343 141.769 17.8273 141.131 18.2721C140.513 18.6975 139.816 19.0359 139.043 19.2873C138.269 19.5387 137.399 19.6644 136.432 19.6644C135.195 19.6644 134.044 19.3743 132.981 18.7942C131.937 18.1948 131.086 17.3536 130.428 16.2707C129.79 15.1878 129.471 13.9309 129.471 12.5Z" fill="#4B5563"/>
</svg> -->


<svg xmlns="http://www.w3.org/2000/svg" width="143" height="24" viewBox="0 0 868.998 87.644">
  <path id="logo" d="M13.065,53.421a37.093,37.093,0,0,1-7.882-11.6A35.18,35.18,0,0,1,2.346,27.7V12.815a34.656,34.656,0,0,1,2.9-14.061,37.324,37.324,0,0,1,7.819-11.539A36.439,36.439,0,0,1,24.6-20.54a35.631,35.631,0,0,1,14.187-2.837H110.8V-9.632H38.791a21.915,21.915,0,0,0-8.764,1.765A22.1,22.1,0,0,0,22.9-3.012a24.348,24.348,0,0,0-4.855,7.188,20.966,20.966,0,0,0-1.829,8.638V27.7a21.605,21.605,0,0,0,1.765,8.638,23.393,23.393,0,0,0,4.792,7.188,22.293,22.293,0,0,0,7.062,4.855,21.468,21.468,0,0,0,8.7,1.765H110.8V64.014H38.791A35.631,35.631,0,0,1,24.6,61.176,36.439,36.439,0,0,1,13.065,53.421ZM257.711,23.786a22.034,22.034,0,0,1-5.549,4.225,34.237,34.237,0,0,1-6.558,2.711q2.9,3.909,6.116,8.2t6.494,8.638q3.279,4.351,6.431,8.575t5.927,7.882h-17.4l-23.96-32.031H162.753V64.014H149.008V-23.378h88.527a28.753,28.753,0,0,1,15.889,4.54,27.378,27.378,0,0,1,9.458,9.773,26.149,26.149,0,0,1,3.531,13.3,25.691,25.691,0,0,1-2.27,10.782,28.127,28.127,0,0,1-6.431,8.89Zm-94.958-5.675h75.159a15.131,15.131,0,0,0,5.612-1.072,14.781,14.781,0,0,0,4.729-2.963,14.552,14.552,0,0,0,3.216-4.414,12.477,12.477,0,0,0,1.2-5.423,11.958,11.958,0,0,0-1.261-5.423A14.949,14.949,0,0,0,248.064-5.6a15.556,15.556,0,0,0-4.792-2.963,15.464,15.464,0,0,0-5.738-1.072H162.753Zm172.639,45.9a35.631,35.631,0,0,1-14.187-2.837,36.128,36.128,0,0,1-19.294-19.294A35.631,35.631,0,0,1,299.074,27.7V12.815a35.317,35.317,0,0,1,2.837-14.061A36.128,36.128,0,0,1,321.206-20.54a35.631,35.631,0,0,1,14.187-2.837H396.68a35.631,35.631,0,0,1,14.187,2.837A36.128,36.128,0,0,1,430.162-1.246,35.317,35.317,0,0,1,433,12.815V27.7a35.631,35.631,0,0,1-2.837,14.187,36.128,36.128,0,0,1-19.294,19.294,35.631,35.631,0,0,1-14.187,2.837ZM312.946,27.7a21.915,21.915,0,0,0,1.766,8.764,22.347,22.347,0,0,0,11.917,11.917,21.916,21.916,0,0,0,8.764,1.765H396.68a21.915,21.915,0,0,0,8.764-1.765,23.393,23.393,0,0,0,7.188-4.792A22.135,22.135,0,0,0,419.253,27.7V12.815a21.606,21.606,0,0,0-1.765-8.638A22.805,22.805,0,0,0,405.445-7.867a21.916,21.916,0,0,0-8.764-1.765H335.393a21.916,21.916,0,0,0-8.764,1.765A22.1,22.1,0,0,0,319.5-3.012a23.394,23.394,0,0,0-4.792,7.188,21.606,21.606,0,0,0-1.766,8.638ZM468.056,64.014V50.142H549.4a11.343,11.343,0,0,0,4.477-.883,10.732,10.732,0,0,0,3.594-2.459,11.992,11.992,0,0,0,2.4-3.657,11.343,11.343,0,0,0,.883-4.477,11.18,11.18,0,0,0-3.279-8.134,10.864,10.864,0,0,0-8.071-3.342H488.864a24.743,24.743,0,0,1-9.773-1.955,25.259,25.259,0,0,1-8.071-5.423,26.142,26.142,0,0,1-5.486-8.071,24.383,24.383,0,0,1-2.018-9.9,25.061,25.061,0,0,1,1.955-9.9,25.259,25.259,0,0,1,5.423-8.071,26.144,26.144,0,0,1,8.071-5.486,24.383,24.383,0,0,1,9.9-2.018h81.212V-9.884H488.864a10.406,10.406,0,0,0-8.008,3.342,13.007,13.007,0,0,0-3.468,8.008,13.36,13.36,0,0,0,3.594,8.449,10.422,10.422,0,0,0,7.882,3.4H549.4a24.076,24.076,0,0,1,9.773,2.018,25.582,25.582,0,0,1,13.43,13.43,24.078,24.078,0,0,1,2.018,9.773,25.52,25.52,0,0,1-1.955,9.962,24.861,24.861,0,0,1-5.36,8.071A25.915,25.915,0,0,1,559.294,62a24.383,24.383,0,0,1-9.9,2.018ZM631.742-3.075a24.439,24.439,0,0,0-4.792,7.188,21.467,21.467,0,0,0-1.766,8.7v.631h94.58V27.317h-94.58v.631a21.159,21.159,0,0,0,1.766,8.575,22.291,22.291,0,0,0,4.855,7.062,23.4,23.4,0,0,0,7.188,4.792,21.605,21.605,0,0,0,8.638,1.765h72.133V64.014H647.632a34.963,34.963,0,0,1-14.187-2.9,37.325,37.325,0,0,1-11.539-7.819,36.439,36.439,0,0,1-7.755-11.539A35.319,35.319,0,0,1,611.313,27.7V12.815a34.522,34.522,0,0,1,2.9-14.124,37.538,37.538,0,0,1,7.819-11.476,36.438,36.438,0,0,1,11.539-7.756,35.318,35.318,0,0,1,14.061-2.837h72.133V-9.632H647.632A21.783,21.783,0,0,0,638.8-7.867,22.819,22.819,0,0,0,631.742-3.075Zm228.883-9.71a39.168,39.168,0,0,1,7.819,11.6,34.218,34.218,0,0,1,2.9,14v51.2H857.473V26.056H772.225V64.014H758.479v-51.2a34.521,34.521,0,0,1,2.9-14.124A37.54,37.54,0,0,1,769.2-12.785a36.636,36.636,0,0,1,11.476-7.756,34.868,34.868,0,0,1,14-2.837h40.354a34.867,34.867,0,0,1,14,2.837A38.2,38.2,0,0,1,860.625-12.785ZM794.419-9.632a20.419,20.419,0,0,0-8.386,1.765,23.624,23.624,0,0,0-7,4.729A23.17,23.17,0,0,0,774.179,3.8a21.306,21.306,0,0,0-1.955,8.386h85.248A21.307,21.307,0,0,0,855.518,3.8a23.166,23.166,0,0,0-4.855-6.936A23.392,23.392,0,0,0,843.6-7.867a21.161,21.161,0,0,0-8.575-1.765Z" transform="translate(-2.346 23.63)" fill="#323743"/>
</svg>
